<?xml version="1.0" encoding="UTF-8" standalone="no"?>
<!-- Created with Inkscape (http://www.inkscape.org/) -->

<svg
   xmlns:dc="http://purl.org/dc/elements/1.1/"
   xmlns:cc="http://creativecommons.org/ns#"
   xmlns:rdf="http://www.w3.org/1999/02/22-rdf-syntax-ns#"
   xmlns:svg="http://www.w3.org/2000/svg"
   xmlns="http://www.w3.org/2000/svg"
   xmlns:sodipodi="http://sodipodi.sourceforge.net/DTD/sodipodi-0.dtd"
   xmlns:inkscape="http://www.inkscape.org/namespaces/inkscape"
   id="svg2"
   version="1.1"
   inkscape:version="0.91 r13725"
   width="25"
   height="25"
   viewBox="0 0 25 25"
   sodipodi:docname="audio.svg">
  <metadata
     id="metadata8">
    <rdf:RDF>
      <cc:Work
         rdf:about="">
        <dc:format>image/svg+xml</dc:format>
        <dc:type
           rdf:resource="http://purl.org/dc/dcmitype/StillImage" />
        <dc:title></dc:title>
      </cc:Work>
    </rdf:RDF>
  </metadata>
  <defs
     id="defs6" />
  <sodipodi:namedview
     pagecolor="#ffffff"
     bordercolor="#666666"
     borderopacity="1"
     objecttolerance="10"
     gridtolerance="10"
     guidetolerance="10"
     inkscape:pageopacity="0"
     inkscape:pageshadow="2"
     inkscape:window-width="1920"
     inkscape:window-height="1027"
     id="namedview4"
     showgrid="false"
     inkscape:zoom="23.6"
     inkscape:cx="10.816545"
     inkscape:cy="15.511008"
     inkscape:window-x="0"
     inkscape:window-y="0"
     inkscape:window-maximized="1"
     inkscape:current-layer="svg2" />
  <path
     style="fill:#000000"
     d="M 11.844516,24.113584 C 11.627253,24.024269 10.392317,22.906059 9.1002149,21.628672 7.8081105,20.351285 6.3223083,19.022241 5.7984326,18.67524 4.9415859,18.107689 4.7015095,18.044329 3.4078285,18.044329 c -1.729294,0 -2.65963245,-0.347269 -3.07327495,-1.147165 -0.4460714,-0.862607 -0.4460714,-7.3933911 0,-8.2559982 0.4136425,-0.7998965 1.34398095,-1.147165 3.07327495,-1.147165 1.2941072,0 1.5336121,-0.063263 2.3919735,-0.6318178 0.5246289,-0.3475 2.0347892,-1.7033646 3.3559119,-3.0130342 2.6174391,-2.5947491 3.0898841,-2.8544317 4.2186411,-2.3188005 1.238379,0.5876474 1.2097,0.318274 1.2097,11.3624637 l 0,10.028491 -0.586129,0.571332 c -0.636716,0.620641 -1.528577,0.877813 -2.15341,0.620949 z m 8.23371,-3.137943 c -0.281638,-0.425586 -0.512071,-0.828965 -0.512071,-0.896396 0,-0.06743 0.21345,-0.290503 0.474334,-0.495716 0.784565,-0.617138 2.036589,-2.668495 2.4545,-4.021536 1.003712,-3.249643 0.17402,-6.7323138 -2.240593,-9.4050041 L 19.54373,5.3703683 20.067015,4.5796319 20.590301,3.7888951 21.140806,4.1808899 c 0.856246,0.6096992 2.469952,2.888559 3.025965,4.2732377 1.50606,3.7506354 0.947483,7.9501814 -1.489338,11.1972914 -0.542365,0.722713 -1.233849,1.490423 -1.536627,1.706021 l -0.550505,0.391995 -0.512075,-0.773794 z M 17.71315,17.427797 17.192841,16.64156 17.71521,15.887782 c 0.69978,-1.009782 1.052287,-2.054494 1.052287,-3.118617 0,-1.064124 -0.352507,-2.108836 -1.052287,-3.1186179 L 17.192841,8.8967702 17.71315,8.1105326 c 0.309664,-0.4679337 0.626711,-0.7454069 0.783133,-0.6853824 0.390275,0.1497624 1.598499,1.9924009 1.966784,2.9994968 0.465412,1.272708 0.431038,3.551183 -0.07311,4.846009 -0.407846,1.047486 -1.512529,2.679167 -1.929746,2.850345 -0.124713,0.05117 -0.460889,-0.260773 -0.747058,-0.693204 z"
     id="path4138"
     inkscape:connector-curvature="0" />
</svg>
