<?xml version="1.0" encoding="UTF-8" standalone="no"?>
<!-- Created with Inkscape (http://www.inkscape.org/) -->

<svg
        xmlns:dc="http://purl.org/dc/elements/1.1/"
        xmlns:cc="http://creativecommons.org/ns#"
        xmlns:rdf="http://www.w3.org/1999/02/22-rdf-syntax-ns#"
        xmlns:svg="http://www.w3.org/2000/svg"
        xmlns="http://www.w3.org/2000/svg"
        xmlns:sodipodi="http://sodipodi.sourceforge.net/DTD/sodipodi-0.dtd"
        xmlns:inkscape="http://www.inkscape.org/namespaces/inkscape"
        width="25"
        height="25"
        viewBox="0 0 25 25"
        id="svg2"
        version="1.1"
        inkscape:version="0.91 r13725"
        sodipodi:docname="report.svg">
    <defs
            id="defs4"/>
    <sodipodi:namedview
            id="base"
            pagecolor="#ffffff"
            bordercolor="#666666"
            borderopacity="1.0"
            inkscape:pageopacity="0.0"
            inkscape:pageshadow="2"
            inkscape:zoom="5.6"
            inkscape:cx="-3.523082"
            inkscape:cy="12.424403"
            inkscape:document-units="px"
            inkscape:current-layer="layer1"
            showgrid="false"
            units="px"
            inkscape:window-width="1046"
            inkscape:window-height="604"
            inkscape:window-x="2078"
            inkscape:window-y="255"
            inkscape:window-maximized="0"/>
    <metadata
            id="metadata7">
        <rdf:RDF>
            <cc:Work
                    rdf:about="">
                <dc:format>image/svg+xml</dc:format>
                <dc:type
                        rdf:resource="http://purl.org/dc/dcmitype/StillImage"/>
                <dc:title></dc:title>
            </cc:Work>
        </rdf:RDF>
    </metadata>
    <g
            inkscape:label="Layer 1"
            inkscape:groupmode="layer"
            id="layer1"
            transform="translate(0,-1027.3622)">
        <path
                style="fill:#000000"
                d="m 11.22595,1052.3327 c -3.0351605,-0.3785 -5.4617294,-1.5495 -7.5647094,-3.6505 -1.8436937,-1.8421 -2.95708387,-3.902 -3.47605124,-6.4311 -0.22190059,-1.0813 -0.2500378,-3.4683 -0.053714,-4.5565 0.4585537,-2.5415 1.65324984,-4.8011 3.52976124,-6.6759 1.5098336,-1.5085 3.008836,-2.4376 4.9561876,-3.0717 1.4215578,-0.4629 2.2612228,-0.5878 3.9325898,-0.5848 3.473266,0.01 6.32419,1.1922 8.790697,3.6565 2.481412,2.4791 3.657879,5.3185 3.659288,8.8317 0.0014,3.498 -1.183813,6.3585 -3.659288,8.8318 -1.846562,1.8448 -3.880157,2.9401 -6.436799,3.4666 -0.76633,0.1579 -2.993731,0.2692 -3.677966,0.1839 z m 2.595948,-2.0462 c 4.08344,-0.3898 7.829756,-3.6834 8.884527,-7.8108 1.606386,-6.2859 -2.834242,-12.5578 -9.275616,-13.1008 -6.5666387,-0.5535 -11.9688435,4.8438 -11.4147895,11.4045 0.4249978,5.0325 4.4745499,9.1043 9.4998015,9.5519 0.822676,0.074 1.132972,0.067 2.306077,-0.045 z m -1.967797,-3.0774 c -0.995229,-0.4516 -1.133546,-1.9185 -0.240781,-2.5537 0.42397,-0.3016 1.144296,-0.3576 1.574212,-0.1224 1.078942,0.5904 1.055384,2.1793 -0.03968,2.6761 -0.220923,0.1002 -0.512018,0.1823 -0.646877,0.1823 -0.134858,0 -0.425953,-0.082 -0.646876,-0.1823 z m -0.333914,-9.3675 0,-5.5365 0.980791,0 0.980791,0 0,5.5365 0,5.5365 -0.980791,0 -0.980791,0 0,-5.5365 z"
                id="path4147"
                inkscape:connector-curvature="0"/>
    </g>
</svg>
