<?xml version="1.0" encoding="UTF-8" standalone="no"?>
<!-- Created with Inkscape (http://www.inkscape.org/) -->

<svg
        xmlns:dc="http://purl.org/dc/elements/1.1/"
        xmlns:cc="http://creativecommons.org/ns#"
        xmlns:rdf="http://www.w3.org/1999/02/22-rdf-syntax-ns#"
        xmlns:svg="http://www.w3.org/2000/svg"
        xmlns="http://www.w3.org/2000/svg"
        xmlns:sodipodi="http://sodipodi.sourceforge.net/DTD/sodipodi-0.dtd"
        xmlns:inkscape="http://www.inkscape.org/namespaces/inkscape"
        width="25"
        height="25"
        viewBox="0 0 25 25"
        id="svg2"
        version="1.1"
        inkscape:version="0.91 r13725"
        sodipodi:docname="report.svg">
    <defs
            id="defs4"/>
    <sodipodi:namedview
            id="base"
            pagecolor="#ffffff"
            bordercolor="#666666"
            borderopacity="1.0"
            inkscape:pageopacity="0.0"
            inkscape:pageshadow="2"
            inkscape:zoom="5.6"
            inkscape:cx="-19.387153"
            inkscape:cy="-1.3712843"
            inkscape:document-units="px"
            inkscape:current-layer="layer1"
            showgrid="false"
            units="px"
            inkscape:window-width="1600"
            inkscape:window-height="847"
            inkscape:window-x="1920"
            inkscape:window-y="180"
            inkscape:window-maximized="1"/>
    <metadata
            id="metadata7">
        <rdf:RDF>
            <cc:Work
                    rdf:about="">
                <dc:format>image/svg+xml</dc:format>
                <dc:type
                        rdf:resource="http://purl.org/dc/dcmitype/StillImage"/>
                <dc:title></dc:title>
            </cc:Work>
        </rdf:RDF>
    </metadata>
    <g
            inkscape:label="Layer 1"
            inkscape:groupmode="layer"
            id="layer1"
            transform="translate(0,-1027.3622)">
        <path
                style="fill:#000000"
                d="m 4.3045742,1052.3057 c -0.4593601,-0.066 -1.2252934,-0.2915 -1.6584615,-0.4879 -1.2243976,-0.5552 -2.12543509,-1.5638 -2.51712109,-2.8176 C 0.01591853,1048.6383 -2.8168369e-4,1048.4754 3.6535706e-6,1047.7033 2.7960862e-4,1046.9091 0.01561553,1046.7654 0.1522386,1046.2754 c 0.0835498,-0.2996 0.24695979,-0.7466 0.3631335,-0.9934 0.24256878,-0.5152 7.7610397,-14.8492 8.0515325,-15.3502 0.61329,-1.0578 1.4719664,-1.8916 2.3651454,-2.2965 0.577047,-0.2617 1.010241,-0.3394 1.733959,-0.311 0.533711,0.021 0.706474,0.052 1.085831,0.1932 1.038107,0.3872 2.011129,1.2565 2.658317,2.375 0.436379,0.7541 7.930681,15.0684 8.130637,15.5296 0.373617,0.8619 0.457746,1.2799 0.459156,2.2812 0.0011,0.7737 -0.01476,0.9343 -0.128071,1.2969 -0.240081,0.7685 -0.529482,1.2434 -1.110104,1.8214 -0.60829,0.6055 -1.105327,0.9137 -1.925344,1.1937 -1.063167,0.363 -0.758773,0.3518 -9.391186,0.3447 -4.2952387,-0 -7.9585405,-0.028 -8.1406708,-0.054 z m 16.6609528,-1.6358 c 1.301026,-0.3693 2.159329,-1.144 2.433407,-2.1963 0.170916,-0.6561 0.0772,-1.5592 -0.24297,-2.3412 -0.179996,-0.4396 -7.809043,-14.9869 -8.159436,-15.5586 -0.488611,-0.7973 -1.191172,-1.4121 -1.846766,-1.6162 -1.125929,-0.3504 -2.312842,0.2594 -3.145866,1.6162 -0.3480589,0.5669 -7.9774058,15.1158 -8.1588738,15.5586 -0.3186639,0.7778 -0.4140383,1.6849 -0.2452659,2.3329 0.3058563,1.1742 1.3263569,2.0053 2.7905466,2.2726 0.3356335,0.061 1.8530193,0.073 8.2757061,0.065 l 7.864715,-0.01 0.434803,-0.1235 z m -8.934215,-3.0989 c -1.140328,-0.5279 -0.783104,-2.2134 0.469124,-2.2134 0.663392,0 1.160855,0.4932 1.157798,1.1479 -0.0039,0.8393 -0.878445,1.4121 -1.626922,1.0655 z m -0.714445,-3.9933 c -0.03794,-0.2302 -0.748116,-7.3908 -0.748116,-7.5431 0,-0.1138 0.01311,-0.1146 1.931685,-0.1146 1.918571,0 1.931684,8e-4 1.931684,0.1146 0,0.1523 -0.710179,7.3129 -0.748115,7.5431 l -0.02956,0.1794 -1.154008,0 -1.154009,0 -0.02956,-0.1794 z"
                id="path4148"
                inkscape:connector-curvature="0"/>
    </g>
</svg>
